<svg xmlns="http://www.w3.org/2000/svg" viewBox="0 0 677.3 164.34" fill="currentColor">
  <g>
    <path d="M676.79,7.32c-1.28,2.69-6.97,5-11.07,6.37-6.1,2.12-12.31,3.97-18.1,5.7-14.65,4.36-91.02,29.95-105.42,35.12-146.34,52.53-83.88,29.79-157.01,52.53-13.1,3.93-25.95,8.12-39.76,10.16-8.56.95-21.23,2.51-24.9-6.78-1.14-3.63.17-7.55,1.54-10.98,1.64-4.56,4.55-8.22,3.69-11.92-1.51-2.56-5.34-1.03-7.87-.47-39,12.34-76.42,30.44-116.27,40.08-12.33,2.53-32.08,7.51-36.62-7.81-2.74-9.59,3.94-20.37,5.63-29.99.02-1.67-1.35-.8-3.48.24-28.17,13.75-127.53,62.36-144.13,70.46-6.62,2.93-20.27,8.86-22.96-1.68-.66-5.22,4.49-10.1,8.61-13.23,53.99-41.02,114.07-76.5,175.91-105.17,12.81-5.12,33.97-13.63,44.37-.86,5.55,7.3,2.79,16.91.44,25.11-.78,2.86-1.66,7.37,2.95,6.57,24.13-7.65,48.14-16.59,72.84-22.66,17.49-4.4,35.62-9.41,53.49-11.89,24.23-4.01,29.5,9.72,19.04,29.74-.92,2.37-7.08,10.87-2.44,11.31,40.57-9.96,80.45-24.45,120.89-35.43,39.79-11.35,79.84-22.36,120.23-32.3,16.49-3.94,37.04-9.18,51.58-9.52,1.17.02,2.31.12,3.43.35,4.11.75,7.04,3.85,5.43,6.86l-.06.11Z"/>
    <path d="M294.48,135.24c-4.32,3.79-9.15,5.04-14.35,6.42-19.58,4.92-62.2,12.31-81.44,13-2.4.03-4.88.16-6.96-1.03-6.45-5.17,12.95-11.29,16.69-13,25.22-9.36,50.43-19.56,76.65-25.93,5.12-1.08,12.11-1.69,14.53,3.59,2.31,5.06-.61,12.98-5.01,16.82l-.14.13Z"/>
  </g>
</svg>